<svg xmlns="http://www.w3.org/2000/svg" id="Layer_1" data-name="Layer 1" viewBox="0 0 65 46"><defs><style>.cls-1{fill:#fff;}.cls-2{fill:#f9a72b;}.cls-3{fill:#231f20;}</style></defs><path id="Rectangle_748" data-name="Rectangle 748" class="cls-1" d="M0,0H65V41a5,5,0,0,1-5,5H5a5,5,0,0,1-5-5V0Z"></path><g id="g10"><g id="g12"><path id="path14" class="cls-2" d="M42.14,14.11H32.92A3.18,3.18,0,0,1,29.74,11h0V11h0V4.64H42.25a3.18,3.18,0,0,1,3.18,3.12h0v6.37h-3.3"></path><path id="path16" class="cls-3" d="M50.27,15.84h9.22A3.18,3.18,0,0,1,62.67,19h0V19h0v6.31H50.16A3.18,3.18,0,0,1,47,22.2h0V15.84h3.3"></path><path id="path18" class="cls-3" d="M50.27,14.11h9.22A3.18,3.18,0,0,0,62.67,11h0V11h0V4.64H50.16A3.18,3.18,0,0,0,47,7.74h0v6.37h3.3"></path><path id="path20" class="cls-3" d="M5.55,33.77a1.68,1.68,0,0,0,1,.67,6.81,6.81,0,0,0,1.83.2h2.34a9.88,9.88,0,0,0,2.17-.18,1.63,1.63,0,0,0,1-.65,2.5,2.5,0,0,0,.3-1.35,2.93,2.93,0,0,0-.2-1.15,1.54,1.54,0,0,0-.89-.73A6,6,0,0,0,11,30.3H9.31l-.77,0a2.36,2.36,0,0,1-.45-.07.46.46,0,0,1-.2-.11.35.35,0,0,1,0-.18A.38.38,0,0,1,8,29.59a.89.89,0,0,1,.48-.13q.35,0,1.08,0c.52,0,.9,0,1.13,0a1.18,1.18,0,0,1,.5.13.59.59,0,0,1,.21.29h2.46a2.23,2.23,0,0,0-.3-1.22,1.65,1.65,0,0,0-1.09-.59A11.92,11.92,0,0,0,10,27.89H8.3A8,8,0,0,0,6.69,28a1.88,1.88,0,0,0-1,.55,1.69,1.69,0,0,0-.38,1.18,3.59,3.59,0,0,0,.15,1.13,1.39,1.39,0,0,0,.48.69,2.08,2.08,0,0,0,.89.37,8.07,8.07,0,0,0,1.47.13h2.31a2.16,2.16,0,0,1,.84.11.43.43,0,0,1,.22.42.39.39,0,0,1-.12.31.88.88,0,0,1-.45.14,7,7,0,0,1-.89,0H9.31a5,5,0,0,1-1-.07.74.74,0,0,1-.42-.2.53.53,0,0,1-.1-.34H5.24A2.35,2.35,0,0,0,5.55,33.77ZM18.47,30a2,2,0,0,1,1.13-.25h1.3A1.51,1.51,0,0,1,22,30a1.3,1.3,0,0,1,.24.88v.77a1.3,1.3,0,0,1-.24.88,1.51,1.51,0,0,1-1.06.26H19.6a2,2,0,0,1-1.13-.25,1.08,1.08,0,0,1-.36-.95V31A1.1,1.1,0,0,1,18.47,30Zm-.36,6.84V33.41h0a3.87,3.87,0,0,0,.44.64,1.4,1.4,0,0,0,.47.37,2.25,2.25,0,0,0,.62.17,5.89,5.89,0,0,0,.92,0h.49a7.06,7.06,0,0,0,1.84-.19A2.56,2.56,0,0,0,24,33.9a1.8,1.8,0,0,0,.48-.86,5,5,0,0,0,.12-1.18V30.68a5.13,5.13,0,0,0-.12-1.19,1.8,1.8,0,0,0-.48-.86,2.35,2.35,0,0,0-1.07-.55,7.06,7.06,0,0,0-1.84-.19h-.7a3.22,3.22,0,0,0-1.51.28,1.93,1.93,0,0,0-.8.8h0V28H15.64v8.83Zm8.07-3.51a1.91,1.91,0,0,0,.62.81,2.33,2.33,0,0,0,.86.4,4.41,4.41,0,0,0,1,.11h3.68a4.6,4.6,0,0,0,1-.11,2.38,2.38,0,0,0,.85-.4,1.92,1.92,0,0,0,.62-.79,3,3,0,0,0,.24-1.29V30.48a2.68,2.68,0,0,0-.4-1.57,2,2,0,0,0-1-.8,3.83,3.83,0,0,0-1.33-.22H28.65a3.73,3.73,0,0,0-1.32.22,1.93,1.93,0,0,0-1,.79,2.78,2.78,0,0,0-.39,1.58v1.57a3,3,0,0,0,.24,1.27ZM28.81,30a2.32,2.32,0,0,1,1.28-.27h.59a6,6,0,0,1,1.21.09.84.84,0,0,1,.55.31,1.3,1.3,0,0,1,.14.68v.89a1.3,1.3,0,0,1-.14.68.8.8,0,0,1-.56.31,6,6,0,0,1-1.2.09h-.59a2.32,2.32,0,0,1-1.28-.27,1,1,0,0,1-.4-.94V31a1.06,1.06,0,0,1,.4-.95ZM39,34.54V30.92a.94.94,0,0,1,.39-.83,1.74,1.74,0,0,1,1-.28,1.21,1.21,0,0,1,1,.29,1.52,1.52,0,0,1,.23.95h2.13c0-.31,0-.5,0-.58A3.62,3.62,0,0,0,43.56,29a1.6,1.6,0,0,0-.81-.83,3.3,3.3,0,0,0-1.44-.27,3.55,3.55,0,0,0-1.57.31,1.52,1.52,0,0,0-.83,1h0V28H36.57v6.54ZM46,33.45a1.81,1.81,0,0,0,.6.71,2.59,2.59,0,0,0,.9.37,5.47,5.47,0,0,0,1.1.11h1a4.31,4.31,0,0,0,1.25-.16,2.47,2.47,0,0,0,.87-.46,1.92,1.92,0,0,0,.5-.7,2.26,2.26,0,0,0,.16-.88v-.8H50.15v.44a.76.76,0,0,1-.21.62,1.35,1.35,0,0,1-.8.17,1.46,1.46,0,0,1-.72-.13.48.48,0,0,1-.23-.46V29.77H52V28H48.19V26.45H45.73V28H44.5v1.77h1.23v2.59A2.35,2.35,0,0,0,46,33.45Zm7.8.32a1.7,1.7,0,0,0,1,.67,6.71,6.71,0,0,0,1.83.2H58.9a9.88,9.88,0,0,0,2.17-.18,1.68,1.68,0,0,0,1-.65,2.6,2.6,0,0,0,.29-1.35,2.94,2.94,0,0,0-.19-1.15,1.57,1.57,0,0,0-.89-.73,6,6,0,0,0-2.09-.28H57.52l-.78,0a2.67,2.67,0,0,1-.45-.07.48.48,0,0,1-.19-.11.27.27,0,0,1-.05-.18.4.4,0,0,1,.12-.33,1,1,0,0,1,.48-.13c.24,0,.6,0,1.09,0s.9,0,1.13,0a1.12,1.12,0,0,1,.49.13.55.55,0,0,1,.22.29H62a2.23,2.23,0,0,0-.3-1.22,1.68,1.68,0,0,0-1.09-.59,11.92,11.92,0,0,0-2.42-.18H56.51A8,8,0,0,0,54.9,28a1.82,1.82,0,0,0-1,.55,1.69,1.69,0,0,0-.38,1.18,3.59,3.59,0,0,0,.15,1.13,1.39,1.39,0,0,0,.48.69A2.08,2.08,0,0,0,55,32a8,8,0,0,0,1.47.13h2.3a2.22,2.22,0,0,1,.85.11.43.43,0,0,1,.22.42.36.36,0,0,1-.13.31.82.82,0,0,1-.45.14,6.83,6.83,0,0,1-.88,0h-.88a4.88,4.88,0,0,1-1-.07.82.82,0,0,1-.43-.2.59.59,0,0,1-.09-.34H53.45a2.35,2.35,0,0,0,.3,1.28"></path><path id="path22" class="cls-2" d="M43.75,21.71h0a2.37,2.37,0,0,1-2.5,2.17H31.42V19.48h0v0h0a2.38,2.38,0,0,1,2.5-2.17h9.84Zm-1.61-5.87H32.92A3.18,3.18,0,0,0,29.74,19h0V19h0v6.31H42.25a3.18,3.18,0,0,0,3.18-3.13h0V15.84h-3.3"></path><path id="path24" class="cls-3" d="M25,37.07h2.44l-.1.43h-2l-.22,1.07h1.72l-.09.42H25l-.34,1.6H24.2L25,37.07"></path><path id="path26" class="cls-3" d="M28,37.07h.48l-.74,3.52h-.48L28,37.07"></path><path id="path28" class="cls-3" d="M31.81,37.07l-.08.42H30.54l-.66,3.1H29.4l.66-3.1H28.87l.09-.42h2.85"></path><path id="path30" class="cls-3" d="M32.25,37.07h.56L34,39.92l.61-2.85H35l-.75,3.52h-.53l-1.2-2.85L32,40.59H31.5l.75-3.52"></path><path id="path32" class="cls-3" d="M35.83,37.07H38.4l-.1.43H36.21L36,38.57h1.94l-.09.41H35.89l-.25,1.19h2.13l-.08.42h-2.6l.74-3.52"></path><path id="path34" class="cls-3" d="M38.86,39.45a.86.86,0,0,0,0,.49c.11.23.36.35.76.35a1.7,1.7,0,0,0,.51-.08.7.7,0,0,0,.53-.53.39.39,0,0,0-.09-.41,1.45,1.45,0,0,0-.52-.21l-.46-.1a1.85,1.85,0,0,1-.61-.24.59.59,0,0,1-.19-.65,1.26,1.26,0,0,1,.49-.78,1.52,1.52,0,0,1,1-.31,1.37,1.37,0,0,1,.89.27.82.82,0,0,1,.2.85H41a.7.7,0,0,0-.06-.43c-.1-.18-.33-.27-.68-.27a1,1,0,0,0-.64.17.71.71,0,0,0-.27.41.31.31,0,0,0,.13.38,2.29,2.29,0,0,0,.6.19l.47.12a1.11,1.11,0,0,1,.5.22.67.67,0,0,1,.18.71,1.16,1.16,0,0,1-.6.84,2.16,2.16,0,0,1-1,.25,1.18,1.18,0,0,1-.95-.34,1,1,0,0,1-.18-.9h.45"></path><path id="path36" class="cls-3" d="M42.13,39.45a.86.86,0,0,0,0,.49c.11.23.36.35.76.35a1.59,1.59,0,0,0,.5-.08.7.7,0,0,0,.54-.53.39.39,0,0,0-.09-.41,1.52,1.52,0,0,0-.53-.21L42.9,39a1.76,1.76,0,0,1-.61-.24.58.58,0,0,1-.19-.65,1.26,1.26,0,0,1,.49-.78,1.52,1.52,0,0,1,1-.31,1.34,1.34,0,0,1,.88.27.8.8,0,0,1,.21.85h-.45a.7.7,0,0,0-.06-.43.73.73,0,0,0-.68-.27,1,1,0,0,0-.64.17.78.78,0,0,0-.28.41.33.33,0,0,0,.14.38,2.29,2.29,0,0,0,.6.19l.47.12a1.11,1.11,0,0,1,.5.22.67.67,0,0,1,.18.71,1.16,1.16,0,0,1-.6.84,2.19,2.19,0,0,1-1,.25,1.21,1.21,0,0,1-1-.34,1,1,0,0,1-.17-.9h.45"></path><path id="path38" class="cls-3" d="M49.66,38.13h-.47a.73.73,0,0,0-.2-.54.84.84,0,0,0-.62-.2,1.28,1.28,0,0,0-.91.37,2,2,0,0,0-.56,1.11,1.45,1.45,0,0,0,.08,1,.79.79,0,0,0,.77.38,1.14,1.14,0,0,0,.89-.41,1.85,1.85,0,0,0,.34-.56h.46a2,2,0,0,1-.61.94,1.79,1.79,0,0,1-1.22.45,1.23,1.23,0,0,1-1-.37,1.67,1.67,0,0,1-.23-1.52,2.42,2.42,0,0,1,.68-1.27A1.88,1.88,0,0,1,48.46,37a1.18,1.18,0,0,1,1,.35,1.05,1.05,0,0,1,.24.8"></path><path id="path40" class="cls-3" d="M50.49,37.07H51l-.66,3.1h1.78l-.09.42H49.75l.74-3.52"></path><path id="path42" class="cls-3" d="M53.74,37.07l-.47,2.17a1.23,1.23,0,0,0,0,.64.59.59,0,0,0,.64.38,1,1,0,0,0,.91-.41,1.65,1.65,0,0,0,.25-.61l.46-2.17H56l-.42,2a2.55,2.55,0,0,1-.39,1,1.53,1.53,0,0,1-1.34.64c-.6,0-.95-.21-1.07-.64a2.1,2.1,0,0,1,0-1l.42-2h.49"></path><path id="path44" class="cls-3" d="M57.76,38.56a1.13,1.13,0,0,0,.49-.09.61.61,0,0,0,.36-.47.36.36,0,0,0-.18-.46,1,1,0,0,0-.45-.07h-.85l-.23,1.09Zm-.18,1.62a.89.89,0,0,0,.68-.25.91.91,0,0,0,.2-.39.41.41,0,0,0-.24-.52,1.12,1.12,0,0,0-.46-.08h-.94l-.27,1.24Zm-.83-3.11h1.51a.8.8,0,0,1,.79.37.7.7,0,0,1,.05.5,1.06,1.06,0,0,1-.3.55,1.25,1.25,0,0,1-.33.2.94.94,0,0,1,.36.24.72.72,0,0,1,.1.63,1.22,1.22,0,0,1-.35.62,1.47,1.47,0,0,1-1.09.41H56l.75-3.52"></path><path id="path46" class="cls-3" d="M59.83,39.45a.86.86,0,0,0,0,.49c.11.23.36.35.76.35a1.59,1.59,0,0,0,.5-.08.7.7,0,0,0,.54-.53.39.39,0,0,0-.09-.41,1.45,1.45,0,0,0-.52-.21L60.6,39a1.85,1.85,0,0,1-.61-.24.58.58,0,0,1-.19-.65,1.26,1.26,0,0,1,.49-.78,1.52,1.52,0,0,1,1-.31,1.34,1.34,0,0,1,.88.27.8.8,0,0,1,.21.85h-.45a.7.7,0,0,0-.06-.43.73.73,0,0,0-.68-.27,1,1,0,0,0-.64.17.71.71,0,0,0-.27.41.31.31,0,0,0,.13.38,2.29,2.29,0,0,0,.6.19l.47.12a1.11,1.11,0,0,1,.5.22.67.67,0,0,1,.18.71,1.16,1.16,0,0,1-.6.84,2.19,2.19,0,0,1-1,.25,1.21,1.21,0,0,1-1-.34,1,1,0,0,1-.17-.9h.45"></path><path id="path48" class="cls-2" d="M11.46,21.43v.73a2.53,2.53,0,0,0,.1.82.68.68,0,0,0,.36.42,1.64,1.64,0,0,0,.74.13h2.69a1.65,1.65,0,0,0,.75-.13.75.75,0,0,0,.36-.42,2.9,2.9,0,0,0,.09-.82v-.73a2.33,2.33,0,0,0-.1-.76.79.79,0,0,0-.39-.45,1.65,1.65,0,0,0-.82-.16H12.77a1.68,1.68,0,0,0-.82.16.79.79,0,0,0-.39.45A2.64,2.64,0,0,0,11.46,21.43ZM9.31,22.82V20.77a3.08,3.08,0,0,1,.2-1.22,1.65,1.65,0,0,1,.58-.76,2.38,2.38,0,0,1,.92-.38,6.22,6.22,0,0,1,1.31-.11h3.37a6,6,0,0,1,1.67.2,1.82,1.82,0,0,1,1,.76,2.81,2.81,0,0,1,.35,1.51v2.05a3.27,3.27,0,0,1-.2,1.22,1.76,1.76,0,0,1-.59.76,2.49,2.49,0,0,1-.94.39,7,7,0,0,1-1.29.1H12.32a6.85,6.85,0,0,1-1.28-.1,2.42,2.42,0,0,1-.94-.39A1.62,1.62,0,0,1,9.51,24a3.08,3.08,0,0,1-.2-1.22"></path><path id="path50" class="cls-2" d="M22.07,20.07V21.8h3.27a.63.63,0,0,0,.51-.2.82.82,0,0,0,.17-.53V20.8a.7.7,0,0,0-.2-.54,1,1,0,0,0-.66-.19ZM20,25.22V18.37H25.7a2.5,2.5,0,0,1,1.94.61,2.6,2.6,0,0,1,.53,1.74v.59A3,3,0,0,1,28,22.36a1.69,1.69,0,0,1-.62.82,1.8,1.8,0,0,1-1.13.32H22.07v1.72H20"></path><path id="path52" class="cls-2" d="M13,14.56h0a.73.73,0,0,0-.59-.7H2.07V15.3h0a.73.73,0,0,0,.64.71H5.42v9.3H8.05V16h5V14.56"></path></g></g></svg>